<?xml version="1.0" encoding="UTF-8" standalone="no"?>
<svg
   xmlns:dc="http://purl.org/dc/elements/1.1/"
   xmlns:cc="http://creativecommons.org/ns#"
   xmlns:rdf="http://www.w3.org/1999/02/22-rdf-syntax-ns#"
   xmlns:svg="http://www.w3.org/2000/svg"
   xmlns="http://www.w3.org/2000/svg"
   xmlns:sodipodi="http://sodipodi.sourceforge.net/DTD/sodipodi-0.dtd"
   xmlns:inkscape="http://www.inkscape.org/namespaces/inkscape"
   style="isolation:isolate"
   width="16"
   height="16"
   preserveAspectRatio="xMinYMid meet"
   version="1.1"
   id="svg13"
   sodipodi:docname="icon.svg"
   inkscape:version="0.92.4 (5da689c313, 2019-01-14)">
  <metadata
     id="metadata17">
    <rdf:RDF>
      <cc:Work
         rdf:about="">
        <dc:format>image/svg+xml</dc:format>
        <dc:type
           rdf:resource="http://purl.org/dc/dcmitype/StillImage" />
      </cc:Work>
    </rdf:RDF>
  </metadata>
  <sodipodi:namedview
     pagecolor="#ffffff"
     bordercolor="#666666"
     borderopacity="1"
     objecttolerance="10"
     gridtolerance="10"
     guidetolerance="10"
     inkscape:pageopacity="0"
     inkscape:pageshadow="2"
     inkscape:window-width="1246"
     inkscape:window-height="823"
     id="namedview15"
     showgrid="false"
     inkscape:zoom="14.75"
     inkscape:cx="7.7288136"
     inkscape:cy="14.187235"
     inkscape:window-x="0"
     inkscape:window-y="0"
     inkscape:window-maximized="0"
     inkscape:current-layer="svg13" />
  <defs
     id="defs5">
    <clipPath
       id="a">
      <path
         d="M0 0h16v16H0z"
         id="path2" />
    </clipPath>
  </defs>
  <g
     clip-path="url(#a)"
     id="g11">
    <path
       d="M7 3h7v1H7V3zm0 10h7v1H7v-1zm0-5h7v1H7V8z"
       id="path7" />
    <path
       d="M2 13.5a1 1 0 1 1 2 0 1 1 0 0 1-2 0zm0-10a1 1 0 1 1 2 0 1 1 0 0 1-2 0zm0 5a1 1 0 1 1 2 0 1 1 0 0 1-2 0z"
       vector-effect="non-scaling-stroke"
       stroke="#000"
       stroke-miterlimit="10"
       id="path9" />
  </g>
  <text
     xml:space="preserve"
     style="font-style:normal;font-weight:normal;font-size:54.58963013px;line-height:1.25;font-family:sans-serif;letter-spacing:0px;word-spacing:0px;fill:#fe0000;fill-opacity:1;stroke:none;stroke-width:1.36474073"
     x="5.6782432"
     y="14.582935"
     id="text826"
     transform="scale(0.99123636,1.0088411)"><tspan
       sodipodi:role="line"
       id="tspan824"
       x="5.6782432"
       y="14.582935"
       style="font-style:normal;font-variant:normal;font-weight:normal;font-stretch:normal;font-size:18.19654274px;font-family:sans-serif;-inkscape-font-specification:'sans-serif, Normal';font-variant-ligatures:normal;font-variant-caps:normal;font-variant-numeric:normal;font-feature-settings:normal;text-align:start;writing-mode:lr-tb;text-anchor:start;stroke-width:1.36474073">?</tspan></text>
</svg>
